<?xml version="1.0" standalone="no"?>
<!DOCTYPE svg PUBLIC "-//W3C//DTD SVG 20010904//EN"
 "http://www.w3.org/TR/2001/REC-SVG-20010904/DTD/svg10.dtd">
<svg version="1.0" xmlns="http://www.w3.org/2000/svg"
 width="320.000000pt" height="320.000000pt" viewBox="0 0 320.000000 320.000000"
 preserveAspectRatio="xMidYMid meet">
<metadata>
Created by potrace 1.11, written by Peter Selinger 2001-2013
</metadata>
<g transform="translate(0.000000,320.000000) scale(0.100000,-0.100000)"
fill="#000000" stroke="none">
<path d="M451 3126 c-8 -10 -11 -419 -11 -1534 0 -1371 2 -1521 16 -1526 28
-11 1344 -7 1434 4 201 25 390 88 515 171 59 39 205 170 205 184 0 2 17 31 38
64 108 166 149 469 95 691 -22 94 -90 232 -138 284 -11 12 -29 33 -41 47 -12
13 -30 31 -40 39 -11 8 -37 29 -60 47 -44 35 -171 103 -192 103 -21 0 -9 20
23 38 17 9 34 23 38 30 4 6 12 12 16 12 10 0 131 119 131 129 0 5 8 16 19 25
25 23 76 136 98 216 23 87 23 289 0 384 -18 70 -84 208 -121 253 -19 22 -99
101 -147 146 -10 9 -23 17 -28 17 -5 0 -11 4 -13 9 -7 19 -219 112 -308 135
-170 43 -220 46 -884 46 -522 0 -636 -2 -645 -14z m1144 -416 c193 -11 356
-50 417 -99 95 -77 119 -117 138 -235 20 -129 -19 -284 -91 -356 -39 -39 -139
-86 -225 -106 -96 -22 -311 -33 -641 -34 l-283 0 0 420 0 420 263 0 c144 -1
334 -5 422 -10z m237 -1274 c220 -34 352 -109 407 -229 74 -163 55 -417 -40
-518 -16 -17 -29 -34 -29 -38 0 -10 -96 -71 -153 -96 -132 -58 -303 -74 -784
-75 l-323 0 0 492 0 491 413 -6 c290 -4 441 -11 509 -21z"/>
</g>
</svg>
